<svg xmlns="http://www.w3.org/2000/svg" width="338" height="47" viewBox="0 0 338 47">
  <path fill="#FC3" d="M30.154 23.26c0 4.704-1.448 8.416-4.344 11.137s-6.968 4.08-12.216 4.08H3.802v-30h10.176c5.056 0 9.016 1.336 11.88 4.008 2.864 2.671 4.296 6.263 4.296 10.775zm-5.856.287c0-3.375-.912-5.916-2.736-7.62-1.824-1.704-4.464-2.556-7.92-2.556H9.658v20.208h4.272c3.232 0 5.768-.853 7.608-2.556 1.84-1.705 2.76-4.195 2.76-7.476z"/>
  <path fill="#FC3" d="M45.034 27.771v10.703h-5.856v-30H49.69c3.712 0 6.576.816 8.592 2.448 2.016 1.632 3.024 3.856 3.024 6.672 0 2.112-.561 3.904-1.68 5.376-1.121 1.472-2.72 2.561-4.8 3.263l7.872 12.24h-6.672l-6.672-10.992-4.32.29zm-.049-4.607l4.368-.096c1.855-.096 3.312-.567 4.368-1.416 1.056-.847 1.584-2.071 1.584-3.672 0-3.072-2.177-4.608-6.528-4.608h-3.792v9.792z"/>
  <path fill="#FC3" d="M91.113 38.477H70.665v-30h20.448v4.896H76.425v7.632h12.048V25.9H76.425v7.68h14.688v4.897z"/>
  <path fill="#FC3" d="M115.304 8.476l10.8 30H120.2l-2.496-7.104h-12.096l-2.448 7.104h-5.904l10.944-30h7.104zm.912 18.001l-4.512-12.96-4.56 12.96h9.072z"/>
  <path fill="#FC3" d="M160.472 38.477l-.24-24.049-7.824 23.616h-6.144l-7.872-23.616-.288 24.049h-5.52l1.008-30h8.112l7.728 23.616 7.728-23.616h8.016l.96 30h-5.664z"/>
  <path fill="#FC3" d="M187.592 8.476l11.28 30h-2.063l-3.504-9.36h-14.16l-3.504 9.36h-2.017l11.472-30h2.496zm4.992 18.816l-6.288-17.041-6.433 17.041h12.721z"/>
  <path fill="#FC3" d="M228.68 10.396l-.623 1.728c-2.4-1.536-5.218-2.304-8.449-2.304-3.393 0-6.199 1.216-8.424 3.648-2.225 2.432-3.336 5.792-3.336 10.08 0 4.193 1.071 7.504 3.217 9.937 2.144 2.433 5.022 3.647 8.64 3.647 3.265 0 6.032-.815 8.305-2.448l.479 1.873c-2.399 1.601-5.346 2.399-8.832 2.399-4.256 0-7.633-1.384-10.129-4.151-2.495-2.769-3.743-6.521-3.743-11.257 0-4.704 1.296-8.472 3.889-11.304s5.937-4.248 10.031-4.248c3.326 0 6.318.8 8.975 2.4z"/>
  <path fill="#FC3" d="M261.128 38.477h-2.017v-14.16H240.39v14.16h-2.016v-30h2.016v14.016h18.721V8.476h2.017v30.001z"/>
  <path fill="#FC3" d="M274.663 38.477h-2.017v-30h2.017v30z"/>
  <path fill="#FC3" d="M306.68 35.739V8.476h1.92v30.288h-2.209L288.104 11.26v27.217h-1.92v-30h2.352l18.144 27.262z"/>
  <path fill="#FC3" d="M337.254 38.477H320.07v-30h17.184V10.3h-15.168v12.24h12.672v1.824h-12.672v12.288h15.168v1.825z"/>
</svg>
